<svg width="153" height="58" viewBox="0 0 153 58" fill="none" xmlns="http://www.w3.org/2000/svg">
<path d="M54.6 16.7077C54.1 18.9641 53.3 19.5282 50.2 19.8667L46.5 20.2051L45.5 30.5846C45 36.2256 44.2 41.3026 43.8 41.641C43.4 42.0923 41.3 42.0923 39.1 41.641C35.2 40.9641 35 40.6256 35 37.0154C35 33.8564 34.6 33.0667 32.4 32.5026C31 32.0513 29.4 32.2769 28.7 33.0667C28.1 33.7436 26.2 34.3077 24.5 34.4205L21.5 34.5333L24.8 35.5487C26.7 36.2256 28 37.3538 28 38.4821C28 40.0615 26.8 40.1744 17.5 39.4974C11.7 39.0462 7 38.9333 7 39.2718C7 39.6103 9.8 43.8974 13.2 48.9744L19.3 58H77.5C109.6 58 137.2 57.6615 138.9 57.3231C141.6 56.6462 142 56.0821 142 53.0359C142 50.1026 142.5 49.2 144.7 48.2974C147.2 47.2821 147.3 47.1692 145.6 45.3641C144.5 44.0103 142.3 43.3333 139.4 43.3333C135.2 43.3333 133.5 41.9795 136.3 40.7385C136.9 40.4 136.6 40.0615 135.5 39.9487C133.8 39.7231 133.9 39.6103 136 38.9333C138.1 38.1436 137.7 37.9179 133.3 37.241C127.2 36.2256 126 36.7897 126 40.6256C126 43.2205 125.8 43.3333 118.5 43.3333C111.2 43.3333 111 43.2205 111 40.5128C111 38.2564 111.5 37.6923 113.6 37.6923C118.2 37.6923 115.6 34.8718 110.7 34.5333C106.3 34.1949 106 33.9692 106 31.0359C106 29.1179 105.3 27.5385 104.4 27.0872C101.9 25.959 98.2 26.2974 97.4 27.6513C97.1 28.3282 95.5 28.6667 93.9 28.441C92.4 28.1026 91.3 28.3282 91.6 28.8923C91.9 29.3436 92.9 29.7949 93.8 29.9077C95.2 29.9077 95.1 30.1333 93.5 30.9231C91.8 31.7128 91.8 31.9385 93.3 31.9385C94.2 32.0513 95 32.6154 95 33.1795C95 33.9692 92.8 34.3077 89.3 34.0821L83.5 33.7436L82.8 28.7795C82.4 26.0718 81.9 23.7026 81.7 23.4769C81.6 23.2513 79.5 23.0256 77.1 22.8L72.8 22.4615L71.1 28.441C70.2 31.8256 69.1 34.4205 68.6 34.4205C68.1 34.4205 66.6 30.2462 65.3 25.1692C64 20.0923 62.7 15.4667 62.4 14.9026C62.1 14.4513 60.4 14 58.5 14C55.9 14 55.1 14.5641 54.6 16.7077Z" fill="black"/>
</svg>
