<svg width="60" height="112" viewBox="0 0 60 112" fill="none" xmlns="http://www.w3.org/2000/svg">
<g clip-path="url(#clip0_1_2)">
<path d="M53.3 59.9C52.9 59.9 47.4 59.9 41.3 60C32 60.1 30 59.9 30 58.7C30 57.9 30.7 57 31.5 56.6C34 55.7 33.4 48.6 30.6 45.6C29.3 44.1 27.8 43 27.1 43C26.3 43 26 38.1 26 26.5V9.99997L21.8 10.1C19.4 10.1 14.6 10.9 11 11.8L4.49999 13.5L4.19999 52.4C3.99999 81.1 4.29999 91.6 5.19999 92.7C6.29999 94.1 18.4 101.4 21.4 102.6C22.7 103.1 23 102.2 23 97.1V91.1L27.1 90C29.4 89.3 32.2 89.1 33.3 89.4C34.6 89.7 35.4 89.3 35.7 87.9C36 86.9 37 86 37.9 86C39.3 85.9 39.3 85.8 37.8 84.6C35.5 82.9 35.3 75 37.5 75C38.4 75 39 74 39.1 72.3L39.2 69.5L39.9 72.5L40.5 75.5L41.8 71.2C43.4 66.1 42.8 65 38.9 65C37.2 65 35.1 64.3 34.3 63.4C32.8 62 33.6 61.9 43 62.1C50.4 62.3 53.5 62.1 53.8 61.2C54 60.5 53.8 60 53.3 59.9Z" fill="black"/>
</g>
<defs>
<clipPath id="clip0_1_2">
<rect width="112" height="60" fill="white" transform="translate(60 -3.05176e-05) rotate(90)"/>
</clipPath>
</defs>
</svg>
