<svg width="217" height="72" viewBox="0 0 217 72" fill="none" xmlns="http://www.w3.org/2000/svg">
<g clip-path="url(#clip0_1_5)">
<path d="M96.8293 23.14L97.0243 28.9L92.0503 28.54C86.101 28.06 85.3208 29.02 84.443 37.9C84.0529 41.5 83.5652 46.3 83.2726 48.34L82.6875 52.3H71.0815C63.8643 52.3 59.3779 51.82 58.8903 50.98C58.5001 50.14 56.7446 49.9 54.2088 50.38C52.0632 50.74 49.4299 51.1 48.5521 50.98C45.9188 50.86 38.214 50.98 36.3609 51.1C35.3856 51.1 33.1425 50.86 31.3869 50.38C29.5339 49.9 27.1932 50.14 26.0228 50.86C24.8524 51.58 21.3414 52.42 18.2204 52.78C10.7107 53.5 4.76136 57.82 2.12806 64.42C0.957704 67.18 0.274997 69.94 0.567586 70.54C0.860175 71.02 49.1373 71.5 107.948 71.5H214.742L214.157 68.26C213.67 66.22 213.865 64.78 214.742 64.06C215.815 63.34 215.718 62.86 214.645 62.02C213.767 61.3 213.572 59.86 213.962 57.82C214.547 54.82 214.45 54.7 210.159 54.7H205.77V44.5V34.3H197.09H188.312L186.849 40.54C186.069 44.02 184.801 49.42 184.118 52.54C182.85 58.78 182.46 59.02 175.341 57.58C172.61 56.98 171.634 56.26 171.634 54.58C171.634 52.66 170.854 52.3 166.66 52.3C163.247 52.3 161.296 52.9 160.516 54.1C159.541 55.78 158.175 55.78 150.666 54.82C145.789 54.22 135.646 53.26 128.039 52.9L114.19 52.06L108.143 40.78C104.144 33.22 101.511 29.5 100.34 29.5C98.7798 29.5 98.4873 28.54 98.4873 23.5C98.4873 20.14 98.0971 17.5 97.512 17.5C97.0243 17.5 96.6342 20.02 96.8293 23.14Z" fill="black"/>
</g>
<defs>
<clipPath id="clip0_1_5">
<rect width="216" height="71" fill="white" transform="translate(0.5 0.5)"/>
</clipPath>
</defs>
</svg>
