<svg width="71" height="216" viewBox="0 0 71 216" fill="none" xmlns="http://www.w3.org/2000/svg">
<g clip-path="url(#clip0_1_5)">
<path d="M48.36 96.3293L42.6 96.5243L42.96 91.5503C43.44 85.601 42.48 84.8208 33.6 83.943C30 83.5529 25.2 83.0652 23.16 82.7726L19.2 82.1875V70.5814C19.2 63.3643 19.68 58.8779 20.52 58.3903C21.36 58.0001 21.6 56.2446 21.12 53.7088C20.76 51.5632 20.4 48.9299 20.52 48.0521C20.64 45.4188 20.52 37.714 20.4 35.8609C20.4 34.8856 20.64 32.6424 21.12 30.8869C21.6 29.0339 21.36 26.6931 20.64 25.5228C19.92 24.3524 19.08 20.8414 18.72 17.7204C18 10.2107 13.68 4.26135 7.08 1.62805C4.32 0.457697 1.56 -0.22501 0.96 0.0675785C0.48 0.360167 0 48.6373 0 107.448L0 214.242L3.24 213.657C5.28 213.17 6.72 213.365 7.44 214.242C8.16 215.315 8.64 215.218 9.48 214.145C10.2 213.267 11.64 213.072 13.68 213.462C16.68 214.047 16.8 213.95 16.8 209.659V205.27H27H37.2V196.59V187.812L30.96 186.349C27.48 185.569 22.08 184.301 18.96 183.618C12.72 182.35 12.48 181.96 13.92 174.841C14.52 172.11 15.24 171.134 16.92 171.134C18.84 171.134 19.2 170.354 19.2 166.16C19.2 162.747 18.6 160.796 17.4 160.016C15.72 159.041 15.72 157.675 16.68 150.166C17.28 145.289 18.24 135.146 18.6 127.539L19.44 113.69L30.72 107.643C38.28 103.644 42 101.011 42 99.8403C42 98.2798 42.96 97.9873 48 97.9873C51.36 97.9873 54 97.5971 54 97.012C54 96.5243 51.48 96.1342 48.36 96.3293Z" fill="black"/>
</g>
<defs>
<clipPath id="clip0_1_5">
<rect width="216" height="71" fill="white" transform="translate(71) rotate(90)"/>
</clipPath>
</defs>
</svg>
