<svg width="85" height="285" viewBox="0 0 85 285" fill="none" xmlns="http://www.w3.org/2000/svg">
<g clip-path="url(#clip0_1_11)">
<path d="M83.5 207.9C82.4 207.9 79.4 207.9 76.7 208C73.2 208.1 71.8 207.7 71.4 206.6C71.1 205.7 70.4 205.3 69.9 205.6C69.4 205.9 68.7 205.4 68.4 204.6C68.1 203.7 67 203 66 203C62.8 203 53 198.8 53 197.4C53 196.5 54.7 196 58.3 195.8L63.5 195.5V189V182.5L58.4 182.8C54.4 183.1 53.1 182.8 52.7 181.6C52.3 180.6 50.8 180 48.5 180H45L45 168.5V157H38H31L31 91L31 25L28.5 25C26.5 25 26 25.5 26 27.5C26 29.1 25.4 30 24.5 30C23.2 30 23 27.7 23 15.5C23 -0.900003 23.3 -0.400003 15.1 2.5C9 4.6 5.3 7.6 2.7 12.3L0.5 16.5L0.2 144.7L0 273L2.7 273.6C9.1 275 15.9 277.5 22.5 280.9C26.4 282.9 29.8 284.6 30.2 284.8C30.6 285 31.1 273.5 31.2 259.3L31.5 233.5L35.5 233.3C45.2 232.7 50 231.8 50 230.7C50 229.8 51.3 229.6 54 229.8L58 230.2V225.2C58 222.2 57.5 219.8 56.7 219.3C56 218.9 54.9 217.3 54.3 215.8C53.6 214.2 52.4 213 51.5 213C50.7 213 50 212.5 50 211.9C50 211.2 53.3 210.9 59.8 210.9C72.1 211 83.2 210.1 84.5 208.9C85 208.3 84.7 208 83.5 207.9Z" fill="black"/>
</g>
<defs>
<clipPath id="clip0_1_11">
<rect width="285" height="85" fill="white" transform="translate(85) rotate(90)"/>
</clipPath>
</defs>
</svg>
