<svg width="65" height="140" viewBox="0 0 65 140" fill="none" xmlns="http://www.w3.org/2000/svg">
<g clip-path="url(#clip0_1_8)">
<path d="M42.2308 47.686C39.9231 47.1851 39.3462 46.3837 39 43.2781L38.6538 39.5714L28.0385 38.5696C22.2692 38.0687 17.0769 37.2672 16.7308 36.8665C16.2692 36.4658 16.2692 34.362 16.7308 32.158C17.4231 28.251 17.7692 28.0506 21.4615 28.0506C24.6923 28.0506 25.5 27.6499 26.0769 25.4459C26.5385 24.0434 26.3077 22.4405 25.5 21.7392C24.8077 21.1381 24.2308 19.2347 24.1154 17.5316L24 14.5262L22.9615 17.8322C22.2692 19.7356 21.1154 21.038 19.9615 21.038C18.3462 21.038 18.2308 19.8358 18.9231 10.519C19.3846 4.70849 19.5 0 19.1538 0C18.8077 0 14.4231 2.80506 9.23077 6.2112L0 12.3222L0 70.6274C0 102.785 0.346154 130.435 0.692308 132.138C1.38462 134.843 1.96154 135.244 5.07692 135.244C8.07692 135.244 9 135.745 9.92308 137.949C10.9615 140.453 11.0769 140.554 12.9231 138.85C14.3077 137.748 15 135.545 15 132.639C15 128.432 16.3846 126.729 17.6538 129.534C18 130.135 18.3462 129.834 18.4615 128.732C18.6923 127.029 18.8077 127.129 19.5 129.233C20.3077 131.337 20.5385 130.936 21.2308 126.528C22.2692 120.417 21.6923 119.215 17.7692 119.215C15.1154 119.215 15 119.015 15 111.702C15 104.388 15.1154 104.188 17.8846 104.188C20.1923 104.188 20.7692 104.689 20.7692 106.793C20.7692 111.401 23.6538 108.796 24 103.887C24.3462 99.4795 24.5769 99.1789 27.5769 99.1789C29.5385 99.1789 31.1538 98.4777 31.6154 97.576C32.7692 95.0715 32.4231 91.3648 31.0385 90.5634C30.3462 90.2628 30 88.6599 30.2308 87.057C30.5769 85.5543 30.3462 84.4523 29.7692 84.7529C29.3077 85.0534 28.8462 86.0552 28.7308 86.9569C28.7308 88.3594 28.5 88.2592 27.6923 86.6563C26.8846 84.9533 26.6538 84.9533 26.6538 86.456C26.5385 87.3576 25.9615 88.159 25.3846 88.159C24.5769 88.159 24.2308 85.9551 24.4615 82.4487L24.8077 76.6383L29.8846 75.937C32.6538 75.5363 35.0769 75.0354 35.3077 74.835C35.5385 74.7348 35.7692 72.631 36 70.2267L36.3462 65.9189L30.2308 64.2158C26.7692 63.3142 24.1154 62.2122 24.1154 61.7113C24.1154 61.2104 28.3846 59.7077 33.5769 58.4054C38.7692 57.103 43.5 55.8007 44.0769 55.5001C44.5385 55.1996 45 53.4965 45 51.5931C45 48.9884 44.4231 48.1869 42.2308 47.686Z" fill="black"/>
</g>
<defs>
<clipPath id="clip0_1_8">
<rect width="140" height="65" fill="white" transform="translate(65) rotate(90)"/>
</clipPath>
</defs>
</svg>
